<svg width="33" height="25" viewBox="0 0 33 25" fill="none" xmlns="http://www.w3.org/2000/svg">
<path d="M30.111 0.833374H2.88878C2.37308 0.833374 1.8785 1.03823 1.51385 1.40289C1.1492 1.76754 0.944336 2.26212 0.944336 2.77782V22.2223C0.944336 22.738 1.1492 23.2325 1.51385 23.5972C1.8785 23.9618 2.37308 24.1667 2.88878 24.1667H30.111C30.6267 24.1667 31.1213 23.9618 31.4859 23.5972C31.8506 23.2325 32.0554 22.738 32.0554 22.2223V2.77782C32.0554 2.26212 31.8506 1.76754 31.4859 1.40289C31.1213 1.03823 30.6267 0.833374 30.111 0.833374ZM28.6138 22.2223H4.50267L11.3082 15.1834L9.90823 13.832L2.88878 21.0945V4.2556L14.9735 16.282C15.3378 16.6441 15.8306 16.8474 16.3443 16.8474C16.858 16.8474 17.3509 16.6441 17.7152 16.282L30.111 3.95421V20.9681L22.9554 13.8125L21.5846 15.1834L28.6138 22.2223ZM4.16239 2.77782H28.536L16.3443 14.9014L4.16239 2.77782Z" fill="black"/>
</svg>
